<svg xmlns="http://www.w3.org/2000/svg" width="56" height="56" viewBox="0 0 56 56"><defs><style>.a{fill:#d0021b;}.b{fill:#fff;}</style></defs><g transform="translate(56) rotate(180)"><rect class="a" width="56" height="56" rx="28" transform="translate(56) rotate(180)"/><path class="b" d="M-21.468-7.385H-6.059V-11.5q0-.411.206-.486t.468.224L-.3-6.674A.854.854,0,0,1,0-6a.854.854,0,0,1-.3.673L-5.386-.2q-.262.262-.468.187T-6.059-.5V-4.617H-21.468A.94.94,0,0,1-22.16-4.9a.94.94,0,0,1-.281-.692v-.86A.9.9,0,0,1-22.16-7.1.94.94,0,0,1-21.468-7.385Z" transform="translate(16.559 -34) rotate(180)"/></g></svg>