<svg xmlns="http://www.w3.org/2000/svg" width="26.536" height="30.711" viewBox="0 0 26.536 30.711"><defs><style>.a{fill:#eb8d00;}.b{fill:#fdae02;}.c{fill:#fdcb02;}.d{fill:#f3fffb;}.e{fill:#ffd27b;}.f{fill:#8f4d24;}.g{fill:#a8d32a;}.h{fill:#8d9ca8;}.i{fill:#aab8c7;}</style></defs><g transform="translate(0 0)"><path class="a" d="M237.366,125.5h-8.96V102.2h9.8V121.67l-.84,1.28Zm0,0" transform="translate(-214.706 -96.069)"/><path class="b" d="M209.9,42.711h-1.549l-1.28,10.234,1.28,16.333,1.549-.217Zm0,0" transform="translate(-194.646 -40.149)"/><path class="c" d="M1.461,0V2.562H0V28.911l8.26.981,5.44-.763V0Zm0,0"/><g transform="translate(4.48 6.15)"><path class="d" d="M74.691,102.535h1.8v2.56h-1.8Zm0,0" transform="translate(-74.691 -102.535)"/><path class="d" d="M149.383,102.535h1.8v2.56h-1.8Zm0,0" transform="translate(-144.903 -102.535)"/><path class="d" d="M74.691,187.9h1.8v2.56h-1.8Zm0,0" transform="translate(-74.691 -182.775)"/><path class="d" d="M149.383,187.9h1.8v2.56h-1.8Zm0,0" transform="translate(-144.903 -182.775)"/><path class="d" d="M74.691,273.258h1.8v2.56h-1.8Zm0,0" transform="translate(-74.691 -263.018)"/><path class="d" d="M149.383,273.258h1.8v2.56h-1.8Zm0,0" transform="translate(-144.903 -263.018)"/><path class="d" d="M74.691,358.617h1.8v2.56h-1.8Zm0,0" transform="translate(-74.691 -343.257)"/><path class="d" d="M149.383,358.617h1.8v2.56h-1.8Zm0,0" transform="translate(-144.903 -343.257)"/></g><path class="e" d="M292.762,187.9h1.8v2.56h-1.8Zm0,0" transform="translate(-275.201 -176.625)"/><path class="e" d="M292.762,273.258h1.8v2.56h-1.8Zm0,0" transform="translate(-275.201 -256.867)"/><path class="f" d="M361.871,421.637h1.8v4.48h-1.8Zm0,0" transform="translate(-340.165 -396.346)"/><path class="g" d="M315.286,334.133a3.93,3.93,0,1,1,3.93-3.93A3.935,3.935,0,0,1,315.286,334.133Zm0,0" transform="translate(-292.68 -306.703)"/><path class="h" d="M231.18,481.988h-12.8l-.64,1.17.64.63h12.8Zm0,0" transform="translate(-204.678 -453.077)"/><path class="i" d="M0,481.988H13.7v1.8H0Zm0,0" transform="translate(0 -453.077)"/></g></svg>