<svg xmlns="http://www.w3.org/2000/svg" width="56" height="56" viewBox="0 0 56 56"><defs><style>.a{fill:#fff;stroke:#d0021b;stroke-width:2px;}.b{fill:#4a90e2;}.c{stroke:none;}.d{fill:none;}</style></defs><g transform="translate(11 -30.384)"><g class="a" transform="translate(-11 30.384)"><circle class="c" cx="28" cy="28" r="28"/><circle class="d" cx="28" cy="28" r="27"/></g><path class="b" d="M31.261,31.842a1.482,1.482,0,0,1-1.481-1.481V28.085H19.733v2.277a1.482,1.482,0,0,1-1.48,1.481H16.1a1.482,1.482,0,0,1-1.48-1.481V27.972a1.5,1.5,0,0,1-.932-1.389V18.624H11.861a.877.877,0,0,1-.877-.876V12.821a.877.877,0,0,1,.877-.876h1.831v-4.8a1.5,1.5,0,0,1,1.5-1.5H23.67a.569.569,0,1,1,0,1.139H15.193a.368.368,0,0,0-.362.363v3.368h20.21V7.147a.368.368,0,0,0-.362-.363h-8.4a.569.569,0,0,1,0-1.139h8.4a1.5,1.5,0,0,1,1.5,1.5v4.8h1.831a.878.878,0,0,1,.877.876v4.928a.878.878,0,0,1-.877.876H36.18v7.958a1.5,1.5,0,0,1-.932,1.389v2.389a1.482,1.482,0,0,1-1.48,1.481Zm-.341-1.481a.345.345,0,0,0,.341.341h2.506a.345.345,0,0,0,.341-.341V28.085H30.92Zm-15.158,0a.346.346,0,0,0,.342.341h2.148a.345.345,0,0,0,.341-.341V28.085H15.763Zm-.932-3.778a.367.367,0,0,0,.362.363h5.724l1.329-3.017a.955.955,0,0,1,.862-.674h3.656a.957.957,0,0,1,.862.676l1.33,3.015h5.722a.367.367,0,0,0,.362-.362V20.039H14.831Zm7.331.362h5.55l-1.126-2.551h-3.3ZM31.287,16.42a.57.57,0,0,1,.2.781l-1.014,1.7h4.571V11.655H25.506V18.9h3.637l1.363-2.282a.569.569,0,0,1,.781-.2Zm-10.634,0a.569.569,0,0,1,.2.781l-1.014,1.7h4.53V11.655H14.831V18.9h3.678l1.363-2.282a.569.569,0,0,1,.781-.2ZM36.18,17.485h1.569v-4.4H36.18Zm-24.058,0h1.569v-4.4H12.122ZM.9,31.842a.9.9,0,0,1-.9-.895V29.815a2.028,2.028,0,0,1,2.025-2.025H5.036V22.474H4.254a.866.866,0,0,1-.865-.866v-6.69a.867.867,0,0,1,.865-.867h.782V11.209H.954A.954.954,0,0,1,0,10.256V.953A.954.954,0,0,1,.954,0H4.239a.569.569,0,0,1,0,1.139H1.14V10.07h8.93V1.139H6.848A.569.569,0,1,1,6.848,0h3.408a.954.954,0,0,1,.953.953v9.3a.954.954,0,0,1-.953.954H6.176v2.841h.78a.867.867,0,0,1,.866.867v6.69a.867.867,0,0,1-.866.866h-.78v5.316H9.184a2.028,2.028,0,0,1,2.025,2.025v1.132a.9.9,0,0,1-.895.895Zm.244-2.027V30.7h8.93v-.888a.887.887,0,0,0-.886-.886H2.025A.887.887,0,0,0,1.14,29.815Zm3.389-8.481H6.684V15.19H4.528Zm24.943,2.157a2.138,2.138,0,1,1,2.136,2.1A2.121,2.121,0,0,1,29.471,23.491Zm1.139,0a1,1,0,1,0,1-.962A.981.981,0,0,0,30.61,23.491Zm-14.486,0a2.139,2.139,0,1,1,2.14,2.1A2.122,2.122,0,0,1,16.124,23.491Zm1.14,0a1,1,0,1,0,1-.962A.982.982,0,0,0,17.264,23.491ZM21.147,9.222a.57.57,0,1,1,0-1.14h7.7a.57.57,0,1,1,0,1.14ZM3.737,7.086a.57.57,0,1,1,0-1.14H7.473a.57.57,0,0,1,0,1.14Zm0-2.149a.57.57,0,1,1,0-1.14H7.473a.57.57,0,0,1,0,1.14Z" transform="translate(-2.445 42.829)"/></g></svg>