<svg xmlns="http://www.w3.org/2000/svg" width="118" height="118" viewBox="0 0 118 118"><defs><style>.a,.e{fill:#fff;}.a{stroke:#d0021b;stroke-width:4px;}.b{fill:#d0021b;}.c{fill:#4a90e2;}.d{fill:#3579c8;}.f{stroke:none;}.g{fill:none;}</style></defs><g transform="translate(-29.57 -6)"><g class="a" transform="translate(29.57 6)"><circle class="f" cx="59" cy="59" r="59"/><circle class="g" cx="59" cy="59" r="57"/></g><path class="b" d="M340.907,324.2a16.875,16.875,0,0,1-1.016,6.906A18.2,18.2,0,0,1,336,337.283l-12.086,12.872-12.086-12.872a18.27,18.27,0,0,1-3.892-6.173q-.18-.492-.33-.991a16.711,16.711,0,0,1-.683-5.915c.578-8.656,7.49-16.324,16.991-16.324S340.327,315.548,340.907,324.2Z" transform="translate(-196.39 -226.287)"/><path class="c" d="M291.6,193.83v25.63c-9.5,0-16.414,7.668-16.991,16.324a16.711,16.711,0,0,0,.683,5.915l-.074.022H265.21V193.83Z" transform="translate(-164.079 -137.867)"/><path class="d" d="M101.131,55.963v47.891H53.57V33.834L77.35,16l23.78,17.834Z"/><path class="e" d="M357.477,346.26a7.5,7.5,0,1,1-7.3,7.495A7.4,7.4,0,0,1,357.477,346.26Z" transform="translate(-229.954 -256.042)"/><path class="e" d="M306.29,235.72h7.928v10.569H306.29Z" transform="translate(-195.927 -170.343)"/><path class="e" d="M191.75,321.99h7.926v10.569H191.75Z" transform="translate(-107.127 -237.226)"/><path class="e" d="M191.75,237.33h7.926V247.9H191.75Z" transform="translate(-105.127 -171.592)"/><path class="e" d="M191.75,152.68h7.926v10.569H191.75Z" transform="translate(-107.127 -105.965)"/><path class="e" d="M91.76,321.99h7.926v10.569H91.76Z" transform="translate(-29.608 -237.226)"/><path class="e" d="M91.76,237.33h7.926V247.9H91.76Z" transform="translate(-29.608 -171.592)"/><path class="e" d="M91.76,152.68h7.926v10.569H91.76Z" transform="translate(-29.608 -105.965)"/></g></svg>