<svg xmlns="http://www.w3.org/2000/svg" width="56" height="56" viewBox="0 0 56 56"><defs><style>.a{fill:#fff;stroke:#d0021b;stroke-width:2px;}.b{fill:#4a90e2;}.c{stroke:none;}.d{fill:none;}</style></defs><g transform="translate(24 16)"><g class="a" transform="translate(-24 -16)"><circle class="c" cx="28" cy="28" r="28"/><circle class="d" cx="28" cy="28" r="27"/></g><path class="b" d="M33.447,34.024V14.993H27.1a.576.576,0,1,1,0-1.153h6.343v-.577a.577.577,0,0,1,1.154,0v20.76a.577.577,0,1,1-1.154,0ZM5.189,34.6a.577.577,0,0,1,0-1.154H29.41a.577.577,0,0,1,0,1.154Zm-2.883-.577V31.082A2.886,2.886,0,0,1,0,28.256c0-.075.032-7.5,2.883-7.5s2.884,7.421,2.884,7.5A2.887,2.887,0,0,1,3.46,31.082v2.942a.576.576,0,1,1-1.153,0ZM1.153,28.256a1.73,1.73,0,1,0,3.461,0c0-2.873-.772-6.343-1.731-6.343S1.153,25.384,1.153,28.256ZM7.5,32.294a.577.577,0,1,1,0-1.154h5.19V25.374h-.577a.577.577,0,0,1,0-1.154H22.49a.577.577,0,0,1,0,1.154h-.577V31.14H27.1a.577.577,0,0,1,0,1.154ZM17.877,27.68a.576.576,0,0,1,0,1.153V31.14h2.883V25.374H17.877Zm-4.037,3.46h2.884V28.833a.576.576,0,1,1,0-1.153V25.374H13.839ZM24.22,29.41v-17.3a.576.576,0,0,1,1.153,0v17.3a.576.576,0,1,1-1.153,0Zm-14.993,0V12.686a.576.576,0,1,1,1.153,0V29.41a.576.576,0,1,1-1.153,0Zm19.03,0a.577.577,0,0,1-.576-.577v-3.46a.577.577,0,0,1,.576-.577h2.307a.577.577,0,0,1,.577.577v3.46a.577.577,0,0,1-.577.577Zm.577-1.154h1.154V25.95H28.833Zm-.577-5.766a.577.577,0,0,1-.576-.577v-3.46a.577.577,0,0,1,.576-.577h2.307a.577.577,0,0,1,.577.577v3.46a.577.577,0,0,1-.577.577Zm.577-1.154h1.154V19.03H28.833Zm-9.8.577a.577.577,0,0,1-.576-.577v-3.46a.577.577,0,0,1,.576-.577h2.307a.577.577,0,0,1,.577.577v3.46a.577.577,0,0,1-.577.577Zm.577-1.153H20.76V18.454H19.607Zm-6.343,1.153a.577.577,0,0,1-.577-.577v-3.46a.577.577,0,0,1,.577-.577H15.57a.577.577,0,0,1,.577.577v3.46a.577.577,0,0,1-.577.577Zm.577-1.153h1.153V18.454H13.84Zm-8.074.576V18.454H4.613v.576a.576.576,0,1,1-1.153,0V17.877a.577.577,0,0,1,.577-.577H6.343a.577.577,0,0,1,.576.577v3.46a.576.576,0,1,1-1.153,0ZM0,19.607V13.263a.576.576,0,1,1,1.153,0v.577H7.5a.576.576,0,1,1,0,1.153H1.153v4.613a.576.576,0,1,1-1.153,0Zm19.03-4.613a.577.577,0,0,1-.576-.577v-3.46a.577.577,0,0,1,.576-.577h2.307a.577.577,0,0,1,.577.577v3.46a.577.577,0,0,1-.577.577Zm.577-1.153H20.76V11.534H19.607Zm-6.343,1.153a.577.577,0,0,1-.577-.577v-3.46a.577.577,0,0,1,.577-.577H15.57a.577.577,0,0,1,.576.577v3.46a.577.577,0,0,1-.576.577Zm.576-1.153h1.154V11.534H13.839Zm11.813-2.966L17.3,5.863,8.947,10.874a.576.576,0,1,1-.594-.988l8.37-5.022V.576A.577.577,0,0,1,17.3,0h4.036a.577.577,0,0,1,.577.576V2.883a.577.577,0,0,1-.577.577H19.03a.576.576,0,0,1,0-1.153H20.76V1.153H17.877V4.864l8.37,5.022a.576.576,0,1,1-.594.988Z" transform="translate(-13.111 -6.667)"/></g></svg>