<svg xmlns="http://www.w3.org/2000/svg" width="56" height="56" viewBox="0 0 56 56"><defs><style>.a{fill:#fff;stroke:#d0021b;stroke-width:2px;}.b{fill:#4a90e2;}.c{stroke:none;}.d{fill:none;}</style></defs><g transform="translate(8 0)"><g class="a" transform="translate(-8 0)"><circle class="c" cx="28" cy="28" r="28"/><circle class="d" cx="28" cy="28" r="27"/></g><path class="b" d="M33.593,34.511l-5.56-10.7-.941.788,3.586,9.355a.68.68,0,0,1-.393.879.672.672,0,0,1-.244.046.681.681,0,0,1-.635-.437l-1.768-4.614a.6.6,0,0,1-.111.009H7.329c-.03,0-.06,0-.088-.005L6.715,31.2H23.5a.681.681,0,1,1,0,1.363H6.193L5.474,34.44a.684.684,0,0,1-.637.438.67.67,0,0,1-.244-.046.681.681,0,0,1-.393-.879L7.787,24.6l-.941-.788-5.559,10.7a.682.682,0,0,1-1.21-.629l5.7-10.969-1.034-.866a.676.676,0,0,1-.246-.522v-7.7a.682.682,0,0,1,1.363,0v7.379l5.347,4.473h2.3v-.988a.681.681,0,1,1,1.361,0v.988h2.07v-.988a.681.681,0,1,1,1.362,0v.988h2.07v-.988a.681.681,0,1,1,1.363,0v.988h1.941l5.347-4.473V5.075a3.717,3.717,0,0,0-3.712-3.713H9.572A3.717,3.717,0,0,0,5.859,5.075v2.35a.682.682,0,0,1-1.363,0V5.075A5.081,5.081,0,0,1,9.572,0H25.308a5.081,5.081,0,0,1,5.075,5.075V21.526a.682.682,0,0,1-.244.522l-1.035.866,5.7,10.969a.681.681,0,1,1-1.208.629ZM7.759,28.474h19.36l-1.133-2.953-1.628,1.364a.69.69,0,0,1-.437.158H10.958a.683.683,0,0,1-.436-.158l-1.63-1.364Zm18.054,3.888a.682.682,0,1,1,.482.2A.688.688,0,0,1,25.813,32.362ZM22.48,19.074A2.316,2.316,0,1,1,24.8,21.389,2.319,2.319,0,0,1,22.48,19.074Zm1.362,0a.954.954,0,1,0,.955-.954A.955.955,0,0,0,23.842,19.074Zm-9.655,2.315a.681.681,0,0,1,0-1.363H21.05a.681.681,0,0,1,0,1.363ZM7.743,19.074a2.316,2.316,0,1,1,2.317,2.315A2.319,2.319,0,0,1,7.743,19.074Zm1.363,0a.954.954,0,1,0,.954-.954A.955.955,0,0,0,9.106,19.074Zm5.081-.946a.681.681,0,0,1,0-1.363H21.05a.681.681,0,0,1,0,1.363ZM9.809,14.986a2.045,2.045,0,0,1-2.042-2.043V6.948A2.046,2.046,0,0,1,9.809,4.9H25.07a2.046,2.046,0,0,1,2.042,2.044v5.994a2.045,2.045,0,0,1-2.042,2.043Zm8.311-1.361h6.95a.682.682,0,0,0,.68-.682V6.948a.681.681,0,0,0-.68-.681H18.12ZM9.129,6.948v5.994a.683.683,0,0,0,.68.682h6.95V6.267H9.809A.681.681,0,0,0,9.129,6.948ZM4.7,10.995a.683.683,0,1,1,.482.2A.688.688,0,0,1,4.7,10.995Z" transform="translate(2.889 8.678)"/></g></svg>