<svg xmlns="http://www.w3.org/2000/svg" width="33.999" height="34" viewBox="0 0 33.999 34"><defs><style>.a{fill:#4a90e2;}</style></defs><g transform="translate(0.205 -30.565)"><g transform="translate(-0.206 30.564)"><g transform="translate(0 0)"><path class="a" d="M23.715,34a.515.515,0,0,1-.5-.527V24.395a.513.513,0,0,0-.5-.527H11.282a.514.514,0,0,0-.5.527v9.078a.514.514,0,0,1-.5.527H.5a.528.528,0,0,1,0-1.054H3.885V8.479a1.648,1.648,0,0,1,.237-.855,1.521,1.521,0,0,1,.6-.565.485.485,0,0,1,.666.242.539.539,0,0,1-.229.7.525.525,0,0,0-.281.474V32.946H9.788V24.395a1.613,1.613,0,0,1,.437-1.117,1.443,1.443,0,0,1,1.057-.464H22.719a1.445,1.445,0,0,1,1.057.464,1.613,1.613,0,0,1,.437,1.117v8.552H29.12V15.6a1.221,1.221,0,0,0-.861-1.187L6.745,8.321a.517.517,0,0,1-.362-.42.175.175,0,0,1,0-.022.51.51,0,0,1-.005-.065h0V6.754A1.57,1.57,0,0,1,7.484,5.228l.248-.07v-3.2A1.541,1.541,0,0,1,9.225.383h8a1.54,1.54,0,0,1,1.494,1.58v.083L25.744.055a1.431,1.431,0,0,1,1.435.4,1.623,1.623,0,0,1,.447,1.127v9.862h0a.5.5,0,1,1-1,0V1.58a.532.532,0,0,0-.148-.374A.478.478,0,0,0,26,1.072L7.741,6.245a.524.524,0,0,0-.369.509v.654l19.875,5.63.013,0,1.256.356a2.139,2.139,0,0,1,1.154.814,2.346,2.346,0,0,1,.446,1.39V32.946H33.5A.528.528,0,0,1,33.5,34ZM8.727,1.963V4.875L17.72,2.328V1.963a.514.514,0,0,0-.5-.526h-8A.514.514,0,0,0,8.727,1.963ZM12.6,20.069a1.5,1.5,0,0,1-1.5-1.5V14.958a1.5,1.5,0,0,1,1.5-1.5h8.333a1.5,1.5,0,0,1,1.5,1.5v3.611a1.5,1.5,0,0,1-1.5,1.5ZM12.042,15.9v1.723a1.5,1.5,0,0,0,1.5,1.5h6.444a1.5,1.5,0,0,0,1.5-1.5V15.9a1.5,1.5,0,0,0-1.5-1.5H13.542A1.5,1.5,0,0,0,12.042,15.9Z" transform="translate(0 0.001)"/></g></g></g></svg>