<svg xmlns="http://www.w3.org/2000/svg" width="455.064" height="142.71" viewBox="0 0 455.064 142.71"><defs><style>.a{fill:rgba(208,2,27,0.6);}</style></defs><path class="a" d="M46.833-77.988v-35.376H65.526c13.668,0,19.5,6.834,19.5,17.688s-5.829,17.688-19.5,17.688ZM120-95.676c0-25.929-17.286-45.426-51.858-45.426H12.462V0H46.833V-50.652H68.139C104.118-50.652,120-72.36,120-95.676Zm11.055,39.4c0,35.376,21.909,57.888,49.245,57.888,16.683,0,28.542-7.638,34.773-17.487V0h34.371V-112.158H215.07v15.879c-6.03-9.849-17.889-17.487-34.572-17.487C152.961-113.766,131.052-91.656,131.052-56.28Zm84.018.2c0,17.889-11.457,27.738-24.522,27.738-12.864,0-24.522-10.05-24.522-27.939s11.658-27.537,24.522-27.537C203.613-83.817,215.07-73.968,215.07-56.079Zm64.722,17.085C279.792-9.849,296.073,0,319.389,0h17.487V-29.145H324.615c-7.638,0-10.452-2.814-10.452-9.447V-83.616h22.512v-28.542H314.163v-27.336H279.792v27.336H266.124v28.542h13.668ZM349.137-56.28c0,35.376,21.909,57.888,49.245,57.888,16.683,0,28.542-7.638,34.773-17.487V0h34.371V-112.158H433.155v15.879c-6.03-9.849-17.889-17.487-34.572-17.487C371.046-113.766,349.137-91.656,349.137-56.28Zm84.018.2c0,17.889-11.457,27.738-24.522,27.738-12.864,0-24.522-10.05-24.522-27.939s11.658-27.537,24.522-27.537C421.7-83.817,433.155-73.968,433.155-56.079Z" transform="translate(-12.462 141.102)"/></svg>