<svg xmlns="http://www.w3.org/2000/svg" width="108" height="108" viewBox="0 0 108 108"><defs><style>.a{fill:#d0021b;}.b{fill:#fff;}</style></defs><g transform="translate(108 108) rotate(180)"><rect class="a" width="108" height="108" rx="15"/><path class="b" d="M27.128.481V-10.645a1.166,1.166,0,0,0-.921-1.315,2.712,2.712,0,0,0-2.093.607L1.34,2.4A2.084,2.084,0,0,0,0,4.224,2.084,2.084,0,0,0,1.34,6.044L24.114,19.9a2.881,2.881,0,0,0,2.093.506,1.166,1.166,0,0,0,.921-1.315V.481Z" transform="translate(36.872 49.696)"/></g></svg>